<svg id="visual" viewBox="0 0 960 540" xmlns="http://www.w3.org/2000/svg" xmlns:xlink="http://www.w3.org/1999/xlink" version="1.1">
    <path d="M0 131L87 125L175 93L262 158L349 141L436 131L524 174L611 131L698 141L785 152L873 66L960 152L960 0L873 0L785 0L698 0L611 0L524 0L436 0L349 0L262 0L175 0L87 0L0 0Z" fill="#101010"></path>
    <path d="M0 158L87 141L175 141L262 201L349 190L436 174L524 217L611 147L698 168L785 195L873 104L960 179L960 150L873 64L785 150L698 139L611 129L524 172L436 129L349 139L262 156L175 91L87 123L0 129Z" fill="#131313"></path>
    <path d="M0 201L87 163L175 185L262 222L349 239L436 195L524 260L611 195L698 212L785 255L873 152L960 233L960 177L873 102L785 193L698 166L611 145L524 215L436 172L349 188L262 199L175 139L87 139L0 156Z" fill="#161616"></path>
    <path d="M0 222L87 222L175 239L262 249L349 298L436 228L524 282L611 222L698 244L785 287L873 174L960 282L960 231L873 150L785 253L698 210L611 193L524 258L436 193L349 237L262 220L175 183L87 161L0 199Z" fill="#191919"></path>
    <path d="M0 255L87 260L175 255L262 266L349 314L436 255L524 309L611 249L698 266L785 314L873 195L960 309L960 280L873 172L785 285L698 242L611 220L524 280L436 226L349 296L262 247L175 237L87 220L0 220Z" fill="#1c1c1c"></path>
    <path d="M0 330L87 325L175 314L262 341L349 390L436 303L524 384L611 336L698 314L785 368L873 276L960 357L960 307L873 193L785 312L698 264L611 247L524 307L436 253L349 312L262 264L175 253L87 258L0 253Z" fill="#1f1f1f"></path>
    <path d="M0 428L87 395L175 390L262 379L349 438L436 352L524 433L611 368L698 422L785 406L873 379L960 401L960 355L873 274L785 366L698 312L611 334L524 382L436 301L349 388L262 339L175 312L87 323L0 328Z" fill="#212121"></path>
    <path d="M0 482L87 449L175 444L262 411L349 471L436 374L524 465L611 411L698 476L785 428L873 401L960 444L960 399L873 377L785 404L698 420L611 366L524 431L436 350L349 436L262 377L175 388L87 393L0 426Z" fill="#242424"></path>
    <path d="M0 541L87 541L175 541L262 541L349 541L436 541L524 541L611 541L698 541L785 541L873 541L960 541L960 442L873 399L785 426L698 474L611 409L524 463L436 372L349 469L262 409L175 442L87 447L0 480Z" fill="#272727"></path>
</svg>